<?xml version="1.0" encoding="UTF-8" standalone="no"?>
<!-- Created with Inkscape (http://www.inkscape.org/) -->

<svg
   xmlns:dc="http://purl.org/dc/elements/1.1/"
   xmlns:cc="http://creativecommons.org/ns#"
   xmlns:rdf="http://www.w3.org/1999/02/22-rdf-syntax-ns#"
   xmlns:svg="http://www.w3.org/2000/svg"
   xmlns="http://www.w3.org/2000/svg"
   xmlns:sodipodi="http://sodipodi.sourceforge.net/DTD/sodipodi-0.dtd"
   xmlns:inkscape="http://www.inkscape.org/namespaces/inkscape"
   width="38.634281mm"
   height="8.1957331mm"
   viewBox="0 0 136.89312 29.039999"
   id="svg2"
   version="1.1"
   inkscape:version="0.91 r13725"
   sodipodi:docname="logo.svg">
  <defs
     id="defs4" />
  <sodipodi:namedview
     id="base"
     pagecolor="#ffffff"
     bordercolor="#666666"
     borderopacity="1.0"
     inkscape:pageopacity="0.0"
     inkscape:pageshadow="2"
     inkscape:zoom="5.6568542"
     inkscape:cx="41.624953"
     inkscape:cy="2.9712588"
     inkscape:document-units="px"
     inkscape:current-layer="layer1"
     showgrid="false"
     borderlayer="false"
     fit-margin-top="0"
     fit-margin-left="0"
     fit-margin-right="0"
     fit-margin-bottom="0"
     inkscape:window-width="1916"
     inkscape:window-height="897"
     inkscape:window-x="0"
     inkscape:window-y="181"
     inkscape:window-maximized="0" />
  <metadata
     id="metadata7">
    <rdf:RDF>
      <cc:Work
         rdf:about="">
        <dc:format>image/svg+xml</dc:format>
        <dc:type
           rdf:resource="http://purl.org/dc/dcmitype/StillImage" />
        <dc:title></dc:title>
      </cc:Work>
    </rdf:RDF>
  </metadata>
  <g
     inkscape:label="Ebene 1"
     inkscape:groupmode="layer"
     id="layer1"
     transform="translate(-172.19678,-511.50597)">
    <g
       style="font-style:normal;font-weight:normal;font-size:40px;line-height:125%;font-family:sans-serif;letter-spacing:0px;word-spacing:0px;fill:#000000;fill-opacity:1;stroke:none;stroke-width:1px;stroke-linecap:butt;stroke-linejoin:miter;stroke-opacity:1"
       id="text3336">
      <path
         d="m 182.75678,532.30597 q 0,2.6 0.92,3.68 0.92,1.04 3.44,1.2 0.36,1 0.36,3.12 -2.28,-0.12 -7.2,-0.12 -5.32,0 -8.08,0.12 0,-2.04 0.28,-3.12 1.16,-0.08 1.68,-0.44 0.56,-0.36 0.76,-1.24 0.24,-0.92 0.24,-2.8 l 0,-3.32 q 0,-1.44 -0.2,-2.08 -0.16,-0.68 -0.76,-1 -0.56,-0.36 -1.88,-0.48 0,-2 0.52,-3 2.8,0 5.16,-0.4 2.36,-0.4 3.4,-0.92 1.36,0.6 1.36,2.56 0,0.56 -0.2,1.56 -0.2,0.96 -0.52,2.24 0.88,-2.48 1.16,-2.92 0.92,-1.44 2.28,-2.32 1.36,-0.92 2.92,-0.92 1.6,0 2.96,0.96 -0.44,2.64 -0.44,5.4 0,0.96 0.04,1.4 -1.24,0.56 -4.24,0.56 -0.04,-1.32 -0.4,-1.92 -0.36,-0.64 -1.16,-0.64 -0.52,0 -1.12,0.64 -0.56,0.64 -0.92,1.64 -0.36,1 -0.36,2.08 l 0,0.48 z"
         style="font-style:normal;font-variant:normal;font-weight:bold;font-stretch:normal;font-size:40px;line-height:125%;font-family:Vollkorn;-inkscape-font-specification:'Vollkorn, Bold';text-align:start;writing-mode:lr-tb;text-anchor:start"
         id="path4137" />
      <path
         d="m 212.53615,530.38597 q -0.32,1.4 -1.32,2.36 -6.12,0 -10.28,0.24 1.04,3.88 5.28,3.88 1.28,0 2.72,-0.44 1.44,-0.44 2.32,-1.08 0.44,0.28 0.76,1.08 0.32,0.8 0.32,1.68 -3.44,2.44 -8.28,2.44 -5.68,0 -8.28,-2.48 -2.6,-2.48 -2.6,-6.72 0,-4.8 2.84,-7.32 2.84,-2.52 7.76,-2.52 2.92,0 4.92,1.28 2.04,1.28 2.96,3.32 0.96,2.04 0.88,4.28 z m -6.52,-0.44 q 0,-2.48 -0.68,-3.96 -0.64,-1.52 -1.88,-1.52 -1.32,0 -2.04,1.32 -0.72,1.28 -0.76,4.16 l 5.36,0 z"
         style="font-style:normal;font-variant:normal;font-weight:bold;font-stretch:normal;font-size:40px;line-height:125%;font-family:Vollkorn;-inkscape-font-specification:'Vollkorn, Bold';text-align:start;writing-mode:lr-tb;text-anchor:start"
         id="path4139" />
      <path
         d="m 239.17303,536.02597 q 0.08,0.36 0.08,1.04 0,1.2 -0.52,2.12 -3.88,0.08 -7.2,1.36 -0.84,-0.32 -1.2,-0.88 -0.32,-0.56 -0.32,-1.4 0,-0.44 0.16,-1.48 -0.92,1.48 -1.88,2.2 -0.84,0.64 -2.24,1.12 -1.36,0.44 -2.88,0.44 -3.68,0 -5.96,-2 -2.24,-2 -2.24,-6.08 0,-3.28 1.48,-5.76 1.48,-2.48 4.12,-3.84 2.68,-1.36 6.2,-1.36 1.28,0 2.56,0.28 l 0,-3.16 q 0,-1.44 -0.6,-2.04 -0.6,-0.6 -2.36,-0.76 0,-2 0.52,-3 2.8,0 5.2,-0.4 2.4,-0.4 3.44,-0.92 1.4,0.64 1.4,2.56 l 0,18.28 q 0,1.64 0.16,2.4 0.16,0.72 0.6,1 0.48,0.24 1.48,0.28 z m -13.44,0.6 q 1.52,0 2.56,-1.44 1.04,-1.48 1.04,-4.6 l 0,-4.88 q -0.56,-0.72 -1.16,-1.04 -0.56,-0.32 -1.36,-0.32 -1.76,0 -3,1.52 -1.2,1.48 -1.2,5.44 0,2.28 0.68,3.8 0.72,1.52 2.44,1.52 z"
         style="font-style:normal;font-variant:normal;font-weight:bold;font-stretch:normal;font-size:40px;line-height:125%;font-family:Vollkorn;-inkscape-font-specification:'Vollkorn, Bold';text-align:start;writing-mode:lr-tb;text-anchor:start"
         id="path4141" />
      <path
         d="m 246.7524,512.82597 q 2.12,0 3.2,0.88 1.12,0.88 1.12,2.6 0,1.48 -1.24,2.4 -1.24,0.92 -3.36,0.92 -1.88,0 -3,-0.88 -1.08,-0.88 -1.08,-2.36 0,-1.72 1.2,-2.64 1.2,-0.92 3.16,-0.92 z m 4.52,20.88 q 0,1.36 0.2,2.08 0.24,0.72 0.8,1.04 0.56,0.28 1.64,0.36 0.32,1 0.32,3.12 -1.48,-0.12 -6.76,-0.12 -5.32,0 -6.76,0.12 0,-2.16 0.36,-3.12 1.08,-0.08 1.6,-0.36 0.56,-0.32 0.76,-1 0.24,-0.72 0.24,-2.12 l 0,-5.08 q 0,-1.44 -0.6,-2.04 -0.6,-0.6 -2.36,-0.76 0,-2 0.52,-3 2.8,0 5.2,-0.4 2.4,-0.4 3.44,-0.92 1.4,0.64 1.4,2.56 l 0,9.64 z"
         style="font-style:normal;font-variant:normal;font-weight:bold;font-stretch:normal;font-size:40px;line-height:125%;font-family:Vollkorn;-inkscape-font-specification:'Vollkorn, Bold';text-align:start;writing-mode:lr-tb;text-anchor:start"
         id="path4143" />
      <path
         d="m 267.0574,540.54597 q -5.04,0 -7.84,-2.32 -2.76,-2.36 -2.76,-7.12 0,-2.48 1.12,-4.68 1.16,-2.2 3.44,-3.56 2.32,-1.36 5.56,-1.36 2.36,0 4.04,0.4 1.72,0.36 3.2,1.16 -0.52,2.12 -0.52,5.28 -1.52,0.68 -4.2,0.68 0,-2.24 -0.64,-3.44 -0.6,-1.2 -1.68,-1.2 -1.36,0 -2.12,1.76 -0.72,1.72 -0.72,4.4 0,2.6 1.28,4.48 1.28,1.84 3.88,1.84 2.44,0 4,-0.92 0.92,1 0.92,2.56 -1.04,0.96 -2.88,1.52 -1.84,0.52 -4.08,0.52 z"
         style="fill:#009de1;fill-opacity:1"
         id="path4145" />
      <path
         d="m 277.8324,517.66597 q 1.76,-0.16 3.52,-0.8 1.76,-0.64 2.8,-1.48 0.72,0.32 1,0.92 0.28,0.56 0.28,1.88 l 0,4.08 4.68,0 q 0,1.72 -0.4,3.2 -2.44,0 -4.28,0.72 l 0,6.56 q 0,1.84 0.16,2.76 0.2,0.92 0.56,1.24 0.4,0.32 1.16,0.32 0.52,0 1.16,-0.12 0.64,-0.12 1.12,-0.32 0.6,0.88 0.6,2.56 -0.88,0.6 -2.52,1 -1.64,0.36 -3.4,0.36 -3.28,0 -4.88,-1.68 -1.56,-1.68 -1.56,-5.64 l 0,-7.32 q -1.12,-0.48 -3,-0.48 0,-1.88 0.56,-3.16 l 2.44,0 0,-4.6 z"
         style="fill:#009de1;fill-opacity:1"
         id="path4147" />
      <path
         d="m 307.6099,526.98597 q -0.68,0.4 -1.76,0.68 -1.08,0.24 -2.2,0.24 -0.48,-3.32 -3.28,-3.32 -0.64,0 -1.04,0.36 -0.36,0.36 -0.36,0.92 0,0.52 0.24,0.92 0.28,0.4 1.12,0.92 0.88,0.52 2.64,1.24 2.36,0.96 3.68,1.84 1.32,0.84 1.88,1.8 0.56,0.96 0.56,2.24 0,2.84 -2.4,4.28 -2.4,1.44 -6.92,1.44 -2.48,0 -4.24,-0.32 -1.76,-0.32 -3.52,-1 0.16,-1.16 0.16,-2.76 0,-1 -0.08,-2.2 0.68,-0.4 1.84,-0.64 1.16,-0.24 2.2,-0.24 0.16,1.92 1.04,2.96 0.88,1 2.16,1 0.84,0 1.36,-0.36 0.56,-0.4 0.56,-1.08 0,-0.88 -0.72,-1.44 -0.68,-0.6 -2.72,-1.4 -2.8,-1.04 -4.24,-2.36 -1.4,-1.36 -1.4,-3.88 0,-2.68 2.16,-4 2.16,-1.32 6.04,-1.32 2.36,0 3.96,0.28 1.64,0.28 3.08,0.88 -0.04,0.36 -0.04,1.12 0,1.64 0.24,3.2 z"
         style="font-style:normal;font-variant:normal;font-weight:bold;font-stretch:normal;font-size:40px;line-height:125%;font-family:Vollkorn;-inkscape-font-specification:'Vollkorn, Bold';text-align:start;writing-mode:lr-tb;text-anchor:start"
         id="path4149" />
    </g>
  </g>
</svg>
